<?xml version="1.0" encoding="UTF-8"?>
<svg version="1.1" xmlns="http://www.w3.org/2000/svg" width="32" height="32">
<path d="M0 0 C1.86910204 3.11517006 2.36724299 6.30864483 2.125 9.875 C-0.73919753 15.30709877 -0.73919753 15.30709877 -3.875 16.875 C-10.96458838 17.4561138 -10.96458838 17.4561138 -14.8125 15 C-17.42697555 12.30629792 -17.81556139 11.39013465 -18.25 7.625 C-17.751181 2.63680998 -16.46393653 1.30080306 -12.875 -2.125 C-8.7084629 -4.34715312 -3.82044299 -2.2922658 0 0 Z " fill="#1B1B1B" transform="translate(23.875,8.125)"/>
<path d="M0 0 C6.36 2.28 6.36 2.28 9 5.25 C10.36320775 8.9988213 10.09297103 11.17460138 9 15 C6.98608141 17.86830829 5.54565017 19.61592935 2.06640625 20.48046875 C-2.17495018 20.77712317 -3.629905 20.3084125 -7 17.5 C-7.66 16.675 -8.32 15.85 -9 15 C-7.68 14.34 -6.36 13.68 -5 13 C-3.68 14.32 -2.36 15.64 -1 17 C-0.01 16.67 0.98 16.34 2 16 C2 15.34 2 14.68 2 14 C2.99 13.67 3.98 13.34 5 13 C5.33 11.02 5.66 9.04 6 7 C5.401875 6.7525 4.80375 6.505 4.1875 6.25 C1.71352479 4.83629988 0.56629745 3.34944617 -1 1 C-0.67 0.67 -0.34 0.34 0 0 Z " fill="#040404" transform="translate(16,5)"/>
<path d="M0 0 C2.54130321 1.46513909 4.86388565 2.98020871 7 5 C7.75 8 7.75 8 7 11 C4.5 13.875 4.5 13.875 2 16 C0.68 15.34 -0.64 14.68 -2 14 C-1.01 13.67 -0.02 13.34 1 13 C1.73323796 10.98491642 1.73323796 10.98491642 2 9 C2.66 9 3.32 9 4 9 C4 8.34 4 7.68 4 7 C3.36191406 6.95101563 2.72382813 6.90203125 2.06640625 6.8515625 C1.24011719 6.77679687 0.41382813 6.70203125 -0.4375 6.625 C-1.26121094 6.55539063 -2.08492187 6.48578125 -2.93359375 6.4140625 C-3.61550781 6.27742187 -4.29742187 6.14078125 -5 6 C-5.33 5.34 -5.66 4.68 -6 4 C-5.195625 3.525625 -4.39125 3.05125 -3.5625 2.5625 C-1.15246512 1.23099846 -1.15246512 1.23099846 0 0 Z " fill="#F3F3F3" transform="translate(15,7)"/>
<path d="M0 0 C1.65 1.65 3.3 3.3 5 5 C1.7 5.33 -1.6 5.66 -5 6 C-5.33 5.34 -5.66 4.68 -6 4 C-5.195625 3.525625 -4.39125 3.05125 -3.5625 2.5625 C-1.15246512 1.23099846 -1.15246512 1.23099846 0 0 Z " fill="#EEEEEE" transform="translate(15,7)"/>
<path d="M0 0 C0.33 0.66 0.66 1.32 1 2 C3.02463255 2.65213292 3.02463255 2.65213292 5 3 C5 3.99 5 4.98 5 6 C3.35333797 5.8864371 1.70763918 5.75882619 0.0625 5.625 C-1.31228516 5.52058594 -1.31228516 5.52058594 -2.71484375 5.4140625 C-3.84599609 5.20910156 -3.84599609 5.20910156 -5 5 C-5.33 4.34 -5.66 3.68 -6 3 C-5.195625 2.87625 -4.39125 2.7525 -3.5625 2.625 C-2.716875 2.41875 -1.87125 2.2125 -1 2 C-0.67 1.34 -0.34 0.68 0 0 Z " fill="#6C6C6C" transform="translate(15,11)"/>
<path d="M0 0 C0.99 1.32 1.98 2.64 3 4 C2.01 5.485 2.01 5.485 1 7 C-0.32 6.34 -1.64 5.68 -3 5 C-2.01 4.67 -1.02 4.34 0 4 C0 2.68 0 1.36 0 0 Z " fill="#FBFBFB" transform="translate(16,16)"/>
</svg>
